<?xml version="1.0" encoding="utf-8"?>
<!-- Generator: Adobe Illustrator 19.0.0, SVG Export Plug-In . SVG Version: 6.00 Build 0)  -->
<svg version="1.1" id="Layer_1" xmlns="http://www.w3.org/2000/svg" xmlns:xlink="http://www.w3.org/1999/xlink" x="0px" y="0px"
	 viewBox="0 0 500 500" style="enable-background:new 0 0 500 500;" xml:space="preserve">
<style type="text/css">
	.st0{fill:#006837;}
	.st1{fill:#333333;}
</style>
<g id="XMLID_45_">
	<path id="XMLID_47_" class="st0" d="M100.1,235.3c-0.7-3.1-2.5-5.2-5.2-6.5c-1.6-0.7-3.3-1-5.2-1c-3.6,0-6.6,1.4-9,4.1
		c-2.3,2.7-3.5,6.9-3.5,12.4c0,5.6,1.3,9.5,3.8,11.8c2.5,2.3,5.4,3.5,8.6,3.5c3.2,0,5.8-0.9,7.8-2.7c2-1.8,3.3-4.2,3.7-7.2H90.7
		v-7.5h18.8v24.2h-6.3l-1-5.6c-1.8,2.1-3.5,3.7-4.9,4.5c-2.5,1.5-5.6,2.3-9.2,2.3c-6,0-10.9-2.1-14.7-6.2c-4-4.2-6-9.9-6-17.1
		c0-7.3,2-13.2,6-17.6c4-4.4,9.3-6.6,16-6.6c5.7,0,10.4,1.5,13.8,4.4c3.5,2.9,5.5,6.5,6,10.9H100.1z"/>
	<path id="XMLID_50_" class="st0" d="M126.9,229H118V221h8.9V229z M118,233h8.9v33.4H118V233z"/>
	<polygon id="XMLID_51_" class="st0" points="155.8,233 165.2,233 153.1,266.4 143.9,266.4 131.9,233 141.7,233 148.7,257.6 	"/>
	<path id="XMLID_54_" class="st0" d="M183.3,239.3c-2,0-3.6,0.6-4.7,1.9c-1.1,1.3-1.8,3-2.1,5.1h13.6c-0.1-2.3-0.8-4.1-2.1-5.2
		C186.7,239.9,185.2,239.3,183.3,239.3z M183.3,232.1c2.8,0,5.3,0.5,7.5,1.6c2.2,1,4.1,2.7,5.5,4.9c1.3,2,2.2,4.3,2.5,6.9
		c0.2,1.5,0.3,3.7,0.3,6.6h-22.9c0.1,3.4,1.2,5.7,3.2,7.1c1.2,0.8,2.7,1.3,4.4,1.3c1.8,0,3.3-0.5,4.4-1.5c0.6-0.6,1.2-1.3,1.6-2.3
		h8.9c-0.2,2-1.3,4-3.1,6c-2.9,3.2-6.9,4.9-12,4.9c-4.3,0-8-1.4-11.3-4.1c-3.2-2.7-4.9-7.2-4.9-13.4c0-5.8,1.5-10.2,4.4-13.3
		C174.8,233.7,178.6,232.1,183.3,232.1z"/>
	<path id="XMLID_57_" class="st1" d="M216.2,229.1v29.5h8.7c4.5,0,7.6-2.2,9.3-6.6c1-2.4,1.4-5.3,1.4-8.6c0-4.6-0.7-8.1-2.2-10.6
		c-1.4-2.5-4.3-3.7-8.6-3.7H216.2z M226.5,221.2c2.8,0,5.1,0.4,7,1c3.2,1,5.7,3,7.7,5.7c1.6,2.2,2.6,4.7,3.2,7.3
		c0.6,2.6,0.9,5.1,0.9,7.5c0,6-1.2,11.1-3.6,15.3c-3.3,5.6-8.3,8.4-15.1,8.4H207v-45.2H226.5z"/>
	<path id="XMLID_60_" class="st1" d="M260.7,229h-8.9V221h8.9V229z M251.8,233h8.9v33.4h-8.9V233z"/>
	<path id="XMLID_61_" class="st1" d="M287.1,232.2c0.2,0,0.3,0,0.4,0c0.1,0,0.4,0,0.8,0v9c-0.6-0.1-1-0.1-1.5-0.1c-0.4,0-0.8,0-1,0
		c-3.5,0-5.9,1.1-7.1,3.4c-0.7,1.3-1,3.3-1,5.9v16h-8.8V233h8.3v5.8c1.3-2.2,2.5-3.8,3.5-4.6C282.4,232.9,284.5,232.2,287.1,232.2
		L287.1,232.2z"/>
	<path id="XMLID_64_" class="st1" d="M306.5,239.3c-2,0-3.6,0.6-4.7,1.9c-1.1,1.3-1.8,3-2.1,5.1h13.6c-0.1-2.3-0.8-4.1-2.1-5.2
		C310,239.9,308.4,239.3,306.5,239.3L306.5,239.3z M306.5,232.1c2.8,0,5.3,0.5,7.5,1.6c2.2,1,4.1,2.7,5.5,4.9c1.3,2,2.2,4.3,2.5,6.9
		c0.2,1.5,0.3,3.7,0.3,6.6h-22.9c0.1,3.4,1.2,5.7,3.2,7.1c1.2,0.8,2.7,1.3,4.4,1.3c1.8,0,3.3-0.5,4.4-1.5c0.6-0.6,1.2-1.3,1.6-2.3
		h8.9c-0.2,2-1.3,4-3.1,6c-2.9,3.2-6.9,4.9-12,4.9c-4.3,0-8-1.4-11.3-4.1c-3.2-2.7-4.9-7.2-4.9-13.4c0-5.8,1.5-10.2,4.4-13.3
		C298.1,233.7,301.9,232.1,306.5,232.1z"/>
	<path id="XMLID_65_" class="st1" d="M349.5,245c-0.2-1.2-0.6-2.4-1.3-3.4c-1-1.3-2.5-2-4.6-2c-2.9,0-5,1.5-6,4.4
		c-0.6,1.6-0.9,3.6-0.9,6.2c0,2.5,0.3,4.4,0.9,5.9c1,2.8,3,4.2,5.9,4.2c2,0,3.5-0.6,4.4-1.7c0.9-1.1,1.4-2.5,1.6-4.3h8.9
		c-0.2,2.7-1.2,5.2-2.9,7.5c-2.7,3.8-6.8,5.7-12.2,5.7c-5.4,0-9.3-1.6-11.9-4.8c-2.5-3.2-3.8-7.3-3.8-12.4c0-5.7,1.4-10.2,4.2-13.4
		c2.8-3.2,6.7-4.8,11.6-4.8c4.2,0,7.6,0.9,10.3,2.8c2.7,1.9,4.3,5.2,4.8,10H349.5z"/>
	<path id="XMLID_66_" class="st1" d="M361,239.5v-6.2h4.7V224h8.6v9.3h5.4v6.2h-5.4v17.7c0,1.4,0.2,2.2,0.5,2.6
		c0.3,0.3,1.4,0.5,3.2,0.5c0.3,0,0.5,0,0.8,0c0.3,0,0.6,0,0.9-0.1v6.5l-4.1,0.2c-4.1,0.1-6.9-0.6-8.5-2.1c-1-1-1.5-2.5-1.5-4.6
		v-20.6H361L361,239.5z"/>
	<rect id="XMLID_67_" x="385.6" y="221.2" class="st1" width="8.7" height="45.2"/>
	<path id="XMLID_68_" class="st1" d="M404.1,272.8l1.1,0.1c0.9,0,1.7,0,2.5-0.1c0.8-0.1,1.4-0.3,2-0.7c0.5-0.3,1-1.1,1.4-2.2
		c0.4-1.1,0.6-1.8,0.6-2L399.3,233h9.7l7.3,24.6l6.9-24.6h9.3L421,265.9c-2.2,6.3-4,10.3-5.2,11.8c-1.3,1.5-3.9,2.3-7.7,2.3
		c-0.8,0-1.4,0-1.9,0c-0.5,0-1.2,0-2.1-0.1L404.1,272.8L404.1,272.8z"/>
</g>
</svg>
